<svg xmlns="http://www.w3.org/2000/svg" width="45.742" height="68.25" viewBox="0 0 45.742 68.25">
  <g id="Baby" transform="translate(-2.927 0.625)">
    <path id="Path_806" data-name="Path 806" d="M26.022,66.5h0a20.046,20.046,0,0,1-19.8-16.93l-.287-1.722L4.5,22.022h0A21.678,21.678,0,0,1,26.022.5h0A21.678,21.678,0,0,1,47.543,22.022h0L46.109,47.848l-.287,1.722A20.046,20.046,0,0,1,26.022,66.5Z" transform="translate(0 0)" fill="none" stroke="#303c42" stroke-linecap="round" stroke-linejoin="round" stroke-width="2.25"/>
    <path id="Path_807" data-name="Path 807" d="M35.724,14.438a2.344,2.344,0,0,0-2.3-2.583A12.536,12.536,0,0,0,18.22,2.96a11.814,11.814,0,0,0-8.9,8.609,2.843,2.843,0,0,0-2.3,3.157,2.78,2.78,0,0,0,2.009,2.3A12.655,12.655,0,0,0,21.377,28.212,12.441,12.441,0,0,0,33.716,17.021,2.756,2.756,0,0,0,35.724,14.438Z" transform="translate(4.645 3.853)" fill="none" stroke="#303c42" stroke-linecap="round" stroke-linejoin="round" stroke-width="2.25"/>
    <path id="Path_808" data-name="Path 808" d="M14.253,2.5A7.934,7.934,0,0,0,11.1,6.23a3.685,3.685,0,0,0,2.583,4.591h.287A2.985,2.985,0,0,0,17.7,9.1V8.813a2.545,2.545,0,0,0-1.722-2.87" transform="translate(12.056 3.739)" fill="none" stroke="#303c42" stroke-linecap="round" stroke-linejoin="round" stroke-width="2.25"/>
    <circle id="Ellipse_17" data-name="Ellipse 17" cx="1.435" cy="1.435" r="1.435" transform="translate(20.283 19.152)" fill="#303c42"/>
    <circle id="Ellipse_18" data-name="Ellipse 18" cx="1.435" cy="1.435" r="1.435" transform="translate(28.891 19.152)" fill="#303c42"/>
    <path id="Path_809" data-name="Path 809" d="M16.739,9.861c0,1.148-1.148,2.009-2.87,2.009S11,11.009,11,9.861,16.739,8.713,16.739,9.861Z" transform="translate(12.152 15.891)" fill="#303c42"/>
    <path id="Path_810" data-name="Path 810" d="M4.5,8.5A141.277,141.277,0,0,0,20.857,26.865a232.946,232.946,0,0,0,21.522,16.07" transform="translate(0 14.957)" fill="none" stroke="#303c42" stroke-linecap="round" stroke-linejoin="round" stroke-width="2.25"/>
    <path id="Path_811" data-name="Path 811" d="M10.4,24.348s8.9-3.73,13.774-6.313C28.191,15.739,35.939,10,35.939,10" transform="translate(11.03 17.761)" fill="none" stroke="#303c42" stroke-linecap="round" stroke-linejoin="round" stroke-width="2.25"/>
  </g>
</svg>
