<svg xmlns="http://www.w3.org/2000/svg" width="66.452" height="55" viewBox="0 0 66.452 55">
  <g id="Education" transform="translate(-0.794 -2.117)">
    <path id="Path_615" data-name="Path 615" d="M3.439,7.674v20.62a1.146,1.146,0,0,0,.262.736c3.137,3.764,8.458,6.057,12.991,7.519A60,60,0,0,0,25.032,38.6a1.146,1.146,0,0,0,.355,0,60,60,0,0,0,8.339-2.047c4.533-1.462,9.846-3.755,12.983-7.519a1.146,1.146,0,0,0,.271-.736V7.674H44.688V27.71C42.051,30.716,37.275,33,33.025,34.367a54.841,54.841,0,0,1-7.815,1.92,54.841,54.841,0,0,1-7.815-1.92C13.144,33,8.368,30.716,5.732,27.71V7.674Z" transform="translate(8.809 18.507)"/>
    <path id="Path_616" data-name="Path 616" d="M33.858,2.127C17.288,4.494,1.194,18.434,1.194,18.434A1.146,1.146,0,0,0,1.228,20.2s16.113,12.771,32.63,15.131a1.145,1.145,0,0,0,.321,0C50.7,32.973,66.81,20.2,66.81,20.2a1.146,1.146,0,0,0,.034-1.768S50.749,4.494,34.18,2.127l-.161-.011Zm.161,2.317c14.456,2.139,28.187,13.28,30.05,14.818C62.163,20.707,48.5,30.89,34.019,33.024,19.54,30.89,5.875,20.707,3.969,19.263,5.832,17.725,19.563,6.584,34.019,4.445Z" transform="translate(0 0)"/>
    <path id="Path_617" data-name="Path 617" d="M9.33,5.291A1.146,1.146,0,0,0,9.2,7.575L36.876,12V35.08h2.292V10.045L9.558,5.308a1.146,1.146,0,0,0-.228-.017Z" transform="translate(24.639 10.571)"/>
    <path id="Path_618" data-name="Path 618" d="M16.32,11.906a1.146,1.146,0,0,0-1.125.922l-1.15,5.726a1.146,1.146,0,0,0,1.125,1.37h6.876a1.146,1.146,0,0,0,1.125-1.37l-1.15-5.726a1.146,1.146,0,0,0-1.116-.922Zm.939,2.292h2.706l.685,3.434H16.573Z" transform="translate(44.054 32.603)"/>
  </g>
</svg>
