<svg xmlns="http://www.w3.org/2000/svg" width="58.54" height="66" viewBox="0 0 58.54 66">
  <path id="Food" d="M37.961,30.829V41.846a10.45,10.45,0,1,1-20.9,0V30.829a.894.894,0,0,1,1.789,0V41.846a8.662,8.662,0,1,0,17.323,0V30.829a.894.894,0,0,1,1.789,0Zm23.846-4.666V70.655c0,.02-.011.038-.013.057a.774.774,0,0,1-.036.179.61.61,0,0,1-.143.292.821.821,0,0,1-.122.14c-.014.013-.02.03-.036.041s-.036,0-.052.018a.862.862,0,0,1-.492.168H11a.894.894,0,0,1-.894-.894V26.162A.894.894,0,0,1,11,25.268h1.3a4.053,4.053,0,0,1-.762-3.053c.113-.973-.179-1.152-1.22-1.61a3.742,3.742,0,0,1-2.608-4.391c.306-2.93,1.461-3.847,2.381-4.1a3.377,3.377,0,0,1,3.4,1.454c.309.41.236.24.238.24a2.29,2.29,0,0,0,.381-.116,3.178,3.178,0,0,1,1.524-.225,6.439,6.439,0,0,1,.969-1.15,3.041,3.041,0,0,0,.96-2.381A3.137,3.137,0,0,1,20.1,6.62a3.1,3.1,0,0,1,2.835.161,3.735,3.735,0,0,1,1.114,3.141,4.724,4.724,0,0,0,.039.66,3.427,3.427,0,0,0,1.123,1.88c1.284,1.377,2.191,2.767.25,5.845-.715,1.143-.537,1.327.179,2.007a3.9,3.9,0,0,1,1,4.954h.894v-4.48A4.135,4.135,0,0,1,30.2,16.937,2.325,2.325,0,0,0,31.667,15h-.3a.894.894,0,0,1-.894-.894V11.657a2.683,2.683,0,0,1,2.683-2.683h5.854A2.683,2.683,0,0,1,41.7,11.657v2.449A.894.894,0,0,1,40.8,15h-.3a2.325,2.325,0,0,0,1.468,1.937,4.114,4.114,0,0,1,1.941,1.533C47.339,14.511,58.255,2.748,64.2,6.164a3.765,3.765,0,0,1,1.912,2.83c.669,4.752-6.1,12.839-9.218,16.276h4.012a.894.894,0,0,1,.9.893Zm-1.789.894H53.372V59.383l6.654,8.644Zm-15.1,40.971,6.663-8.644V27.056H44.921Zm.923,1.733H59.1l-6.618-8.608ZM44.592,20.444c.011.116.054.224.054.343v4.48h9.818c3.173-3.325,10.461-11.953,9.889-16.026A1.955,1.955,0,0,0,63.32,7.715c-2.445-1.4-6.6,1.1-10.519,4.421a9.732,9.732,0,0,0,4.069,3.329.894.894,0,0,1-.322,1.73.912.912,0,0,1-.32-.059,11.374,11.374,0,0,1-4.777-3.817c-1.431,1.29-2.774,2.631-3.967,3.892a13.207,13.207,0,0,0,4.225,3.465.894.894,0,0,1-.347,1.717.882.882,0,0,1-.349-.072,14.5,14.5,0,0,1-4.752-3.79c-.642.7-1.2,1.35-1.672,1.914ZM32.266,13.211h7.643V11.657a.894.894,0,0,0-.894-.894H33.161a.894.894,0,0,0-.894.894ZM29.333,25.268h13.52v-4.48a2.338,2.338,0,0,0-1.506-2.179A4.114,4.114,0,0,1,38.722,15H33.465a4.114,4.114,0,0,1-2.629,3.609,2.339,2.339,0,0,0-1.5,2.179ZM16.863,14.853c-.3.748.055,1.336.773,2.4a5.246,5.246,0,0,1,1.179,4.65,2.522,2.522,0,0,0,1.547,3.364h1.2A36.428,36.428,0,0,1,20.1,12.3a.9.9,0,1,1,1.778.211,35.686,35.686,0,0,0,1.544,12.754h1.268c1.12-2.288.513-2.912-.272-3.659a2.862,2.862,0,0,1-.465-4.255c1.363-2.162.864-2.7-.045-3.67a5.092,5.092,0,0,1-1.585-2.842,7.643,7.643,0,0,1-.057-.866c-.016-.565-.047-1.511-.358-1.735a1.719,1.719,0,0,0-1.252.084c-1.22.39-1.241.726-1.309,1.728a4.784,4.784,0,0,1-1.524,3.561,3.935,3.935,0,0,0-.964,1.239ZM15.91,25.268H17.6a3.922,3.922,0,0,1-.6-1.329A31.037,31.037,0,0,0,12.5,18.2a.894.894,0,1,1,1.227-1.3,31.354,31.354,0,0,1,3.429,4.04,4.082,4.082,0,0,0-1-2.683,5.216,5.216,0,0,1-1.179-2.96c-.089.025-.163.036-.279.077a2.035,2.035,0,0,1-2.645-.73,1.7,1.7,0,0,0-1.486-.81c-.524.147-.928,1.1-1.073,2.559-.179,1.789.472,2.084,1.563,2.572a3.067,3.067,0,0,1,2.252,3.454,2.3,2.3,0,0,0,.431,1.81,3.52,3.52,0,0,0,2.171,1.037ZM11.891,69.761H43.132v-42.7H11.891Z" transform="translate(-7.62 -5.549)"/>
</svg>
