<svg xmlns="http://www.w3.org/2000/svg" width="39.733" height="62" viewBox="0 0 39.733 62">
  <g id="Healthcare" transform="translate(-8.001 -1024.36)">
    <path id="rect14598-4" d="M11.738,4a1.24,1.24,0,0,0-1.24,1.24v7.444a1.24,1.24,0,0,0,1.24,1.24h3.72V18.93a7.926,7.926,0,0,0-7.435,7.885v2.993a1.24,1.24,0,0,0,0,.465V54.606a1.24,1.24,0,0,0,0,.465v2.993A7.946,7.946,0,0,0,15.961,66H39.8a7.942,7.942,0,0,0,7.933-7.933V26.815a7.923,7.923,0,0,0-7.478-7.89v-5h3.72a1.24,1.24,0,0,0,1.24-1.24V5.238A1.24,1.24,0,0,0,43.975,4Zm1.24,2.48H42.735v4.964H12.978Zm4.96,7.444H37.776v4.96H17.937Zm-1.976,7.439H39.8a5.413,5.413,0,0,1,5.454,5.454V28.8H10.5V26.815A5.418,5.418,0,0,1,15.961,21.362ZM10.5,31.281H45.254V53.6H10.5Zm14.9,2.48A1.24,1.24,0,0,0,24.161,35v3.72h-3.72a1.24,1.24,0,0,0-1.24,1.24v4.96a1.24,1.24,0,0,0,1.24,1.24h3.72v3.72a1.24,1.24,0,0,0,1.24,1.24h4.96a1.24,1.24,0,0,0,1.24-1.24V46.16h3.72a1.24,1.24,0,0,0,1.24-1.24V39.96a1.24,1.24,0,0,0-1.24-1.24H31.6V35a1.24,1.24,0,0,0-1.24-1.24Zm1.24,2.48h2.48v3.72a1.24,1.24,0,0,0,1.24,1.24h3.72v2.48h-3.72a1.24,1.24,0,0,0-1.24,1.24v3.72h-2.48V44.92a1.24,1.24,0,0,0-1.24-1.24h-3.72V41.2H25.4a1.24,1.24,0,0,0,1.24-1.24ZM10.5,56.079H45.254v1.986A5.414,5.414,0,0,1,39.8,63.518H15.961A5.418,5.418,0,0,1,10.5,58.065Z" transform="translate(0 1020.362)"/>
  </g>
</svg>
