<svg xmlns="http://www.w3.org/2000/svg" width="71.273" height="48" viewBox="0 0 71.273 48">
  <path id="Transportation" d="M70.754,117.905l-4.111-.807v-9.483a8.879,8.879,0,0,0-8.57-9.141H13.642A7.4,7.4,0,0,0,6.5,106.092v28.292a4.44,4.44,0,0,0,4.285,4.571h1.5a8.145,8.145,0,0,0,7.89,7.519,8.145,8.145,0,0,0,7.89-7.519H56.226a7.9,7.9,0,0,0,15.781,0h1.481a4.44,4.44,0,0,0,4.285-4.571V126.9a9,9,0,0,0-7.019-8.99Zm-20.167-1.4v-7.3h13.2v7.3Zm-15.712,0v-7.3H47.731v7.3Zm12.855,3.047v16.357H34.876V119.551ZM32.019,116.5H18.632A1.48,1.48,0,0,1,17.2,114.98v-4.251a1.48,1.48,0,0,1,1.428-1.524H32.019v7.3ZM20.17,143.426a5.435,5.435,0,0,1,0-10.848,5.435,5.435,0,0,1,0,10.848Zm0-13.895a8.067,8.067,0,0,0-7.7,6.376h-1.69a1.48,1.48,0,0,1-1.428-1.524V106.092a4.44,4.44,0,0,1,4.285-4.571H58.074a5.807,5.807,0,0,1,5.547,4.637H18.632a4.44,4.44,0,0,0-4.285,4.571v4.252a4.44,4.44,0,0,0,4.285,4.571H32.019v16.355H27.866a8.067,8.067,0,0,0-7.7-6.376Zm43.946,13.895A5.435,5.435,0,1,1,69.2,138,5.263,5.263,0,0,1,64.117,143.426Zm10.8-9.042a1.48,1.48,0,0,1-1.428,1.524H71.812a7.832,7.832,0,0,0-15.391,0H50.587V119.551H64.951a2.761,2.761,0,0,0,1.176.544l4.111.807a6,6,0,0,1,4.679,5.993Z" transform="translate(-6.5 -98.474)" fill="#1f1f1f"/>
</svg>
