<svg xmlns="http://www.w3.org/2000/svg" width="37.363" height="60" viewBox="0 0 37.363 60">
  <g id="Utilities" transform="translate(-21.977 -5)">
    <path id="Path_613" data-name="Path 613" d="M29.892,38.944A3.659,3.659,0,0,1,31.486,41.9v1.311h-.379a1.333,1.333,0,1,0,0,2.667h.379v2.752h-.379a1.333,1.333,0,1,0,0,2.667h.379v2.165c0,.2.017.391.029.587h-.408a1.333,1.333,0,1,0,0,2.667h.959a9.4,9.4,0,0,0,5.709,5.7,1.709,1.709,0,0,0-.045.341c0,1.241,1.312,2.247,2.93,2.247s2.93-1.006,2.93-2.248a1.733,1.733,0,0,0-.043-.327,9.126,9.126,0,0,0,5.779-5.711h.887a1.333,1.333,0,0,0,0-2.667h-.395c0-.109.016-.217.016-.327V51.3h.379a1.333,1.333,0,0,0,0-2.667h-.379V45.877h.379a1.333,1.333,0,1,0,0-2.667h-.379V41.925a3.485,3.485,0,0,1,1.454-2.885A18.678,18.678,0,0,0,40.659,5a19.431,19.431,0,0,0-2.125.117,18.681,18.681,0,0,0-8.643,33.827ZM45.26,58.323a6.461,6.461,0,0,1-4.6,1.905h-.123a6.5,6.5,0,0,1-5.571-3.513H46.436A6.5,6.5,0,0,1,45.26,58.323Zm1.907-4.6c0,.11-.011.218-.016.327H34.18c-.016-.194-.029-.389-.029-.587V51.3H47.166v2.425Zm0-5.092H34.152V45.877H47.166v2.752ZM24.714,22.158A16,16,0,0,1,38.828,7.768a16.737,16.737,0,0,1,1.831-.1,16.012,16.012,0,0,1,9.109,29.183,6.151,6.151,0,0,0-2.6,5.076V43.21H34.152V41.9a6.326,6.326,0,0,0-2.721-5.134A15.9,15.9,0,0,1,24.714,22.158Z" transform="translate(0)"/>
    <path id="Path_614" data-name="Path 614" d="M43.433,27.7a1.238,1.238,0,0,0,.029.121c.012.043.023.085.039.127s.034.077.053.115a1.3,1.3,0,0,0,.063.116,1.253,1.253,0,0,0,.074.1,1.192,1.192,0,0,0,.083.1,1.382,1.382,0,0,0,.1.095c.023.019.041.042.065.06.007,0,.015.006.021.011a1.322,1.322,0,0,0,.333.174l.075.023a1.3,1.3,0,0,0,.369.059H48.19l-4.514,6a1.333,1.333,0,1,0,2.131,1.6l6.12-8.134c.007-.009.011-.019.017-.029a1.187,1.187,0,0,0,.074-.122c.02-.036.042-.071.058-.107s.029-.079.043-.119a1.288,1.288,0,0,0,.041-.131c.008-.036.011-.073.017-.111a1.449,1.449,0,0,0,.015-.152c0-.011,0-.021,0-.031,0-.028-.007-.055-.008-.082a1.32,1.32,0,0,0-.015-.146,1.239,1.239,0,0,0-.029-.121c-.012-.043-.023-.085-.039-.127s-.034-.077-.053-.115a1.3,1.3,0,0,0-.063-.116,1.253,1.253,0,0,0-.074-.1,1.191,1.191,0,0,0-.083-.1,1.381,1.381,0,0,0-.1-.095c-.023-.019-.041-.042-.065-.06s-.019-.011-.029-.017a1.222,1.222,0,0,0-.124-.075c-.035-.019-.069-.041-.1-.057a1.275,1.275,0,0,0-.123-.044c-.042-.014-.083-.029-.127-.039s-.077-.012-.115-.017a1.348,1.348,0,0,0-.147-.015c-.011,0-.021,0-.033,0H47.415l4.514-6a1.334,1.334,0,1,0-2.131-1.6l-6.12,8.135c-.007.009-.011.019-.017.029a1.188,1.188,0,0,0-.074.122c-.02.036-.042.071-.058.107s-.029.079-.043.119a1.288,1.288,0,0,0-.041.131c-.008.036-.011.073-.017.111a1.449,1.449,0,0,0-.015.152c0,.011,0,.021,0,.031,0,.028.007.055.008.082A1.349,1.349,0,0,0,43.433,27.7Z" transform="translate(-7.144 -4.335)"/>
  </g>
</svg>
